<svg t="1606738457513" class="icon" viewBox="0 0 1024 1024" version="1.1" xmlns="http://www.w3.org/2000/svg" p-id="16275" width="24" height="24"><path d="M73.142857 879.36h877.714286v-73.142857H73.142857z" fill="#8a8a8a" p-id="16276"></path><path d="M797.257143 465.92V73.142857h-58.514286v265.508572L658.285714 269.750857 577.828571 338.651429V73.142857h-58.514285v392.777143L658.285714 346.733714z" fill="#8a8a8a" p-id="16277"></path><path d="M182.857143 0h658.285714a109.714286 109.714286 0 0 1 109.714286 109.714286v804.571428a109.714286 109.714286 0 0 1-109.714286 109.714286H182.857143a109.714286 109.714286 0 0 1-109.714286-109.714286V109.714286a109.714286 109.714286 0 0 1 109.714286-109.714286z m0 73.142857a36.571429 36.571429 0 0 0-36.571429 36.571429v804.571428a36.571429 36.571429 0 0 0 36.571429 36.571429h658.285714a36.571429 36.571429 0 0 0 36.571429-36.571429V109.714286a36.571429 36.571429 0 0 0-36.571429-36.571429H182.857143z" fill="#8a8a8a" p-id="16278" data-spm-anchor-id="a313x.7781069.0.i69" class=""></path></svg>