<svg t="1606734960446" class="icon" viewBox="0 0 1099 1024" version="1.1" xmlns="http://www.w3.org/2000/svg" p-id="3522" width="24" height="24"><path d="M1081.212019 462.778972L914.541687 296.093152V103.588221a63.006683 63.006683 0 1 0-126.044342 0v66.460589l-124.092807-124.108296c-61.349427-61.31845-168.033308-61.210032-229.24334 0.108419L18.446647 462.778972a63.068636 63.068636 0 0 0 89.182025 89.13556L524.296758 135.184493c13.567811-13.490369 37.49734-13.490369 51.003197-0.046465l416.745528 416.776504a62.913752 62.913752 0 0 0 44.591012 18.446647 62.898264 62.898264 0 0 0 44.591013-18.446647 63.037659 63.037659 0 0 0-0.015489-89.13556z" fill="#7562EE" p-id="3523"></path><path d="M571.722142 254.81665a30.930272 30.930272 0 0 0-43.770129 0L161.404287 621.255957a31.03869 31.03869 0 0 0-9.076184 21.93153v267.282773a113.560717 113.560717 0 0 0 113.576205 113.545228h181.477212V742.979044h204.864649v281.020956H833.738869a113.560717 113.560717 0 0 0 113.560717-113.545229V643.187487c0-8.239812-3.252557-16.13888-9.076184-21.93153L571.722142 254.81665z" fill="#7562EE" p-id="3524"></path></svg>