<svg t="1606737844904" class="icon" viewBox="0 0 1027 1024" version="1.1" xmlns="http://www.w3.org/2000/svg" p-id="7060" width="24" height="24"><path d="M814.933333 1024H76.8c-42.666667 0-76.8-34.133333-76.8-76.8V76.8C0 34.133333 34.133333 0 76.8 0h738.133333c42.666667 0 76.8 34.133333 76.8 76.8v866.133333c4.266667 46.933333-34.133333 81.066667-76.8 81.066667zM76.8 68.266667c-4.266667 0-8.533333 4.266667-8.533333 8.533333v866.133333c0 4.266667 4.266667 8.533333 8.533333 8.533334h738.133333c4.266667 0 8.533333-4.266667 8.533334-8.533334V76.8c0-4.266667-4.266667-8.533333-8.533334-8.533333H76.8z" fill="#666666" p-id="7061"></path><path d="M968.533333 247.466667c34.133333 21.333333 46.933333 64 25.6 98.133333l-256 443.733333-123.733333 85.333334v-157.866667l256-443.733333c21.333333-34.133333 64-46.933333 98.133333-25.6z" fill="#FFFFFF" p-id="7062"></path><path d="M614.4 896c-4.266667 0-8.533333 0-8.533333-4.266667-8.533333-4.266667-12.8-12.8-12.8-21.333333v-157.866667c0-4.266667 0-8.533333 4.266666-12.8l256-439.466666c25.6-42.666667 81.066667-59.733333 128-34.133334 42.666667 25.6 59.733333 81.066667 34.133334 128l-256 443.733334c0 4.266667-4.266667 4.266667-4.266667 8.533333l-123.733333 85.333333c-8.533333 4.266667-12.8 4.266667-17.066667 4.266667z m21.333333-174.933333v110.933333l85.333334-59.733333 251.733333-439.466667c12.8-25.6 4.266667-55.466667-17.066667-68.266667-21.333333-12.8-51.2-4.266667-68.266666 17.066667l-251.733334 439.466667z" fill="#666666" p-id="7063"></path><path d="M738.133333 806.4c-4.266667 0-8.533333 0-8.533333-4.266667l-115.2-59.733333c-12.8-4.266667-17.066667-17.066667-12.8-29.866667 4.266667-8.533333 17.066667-12.8 29.866667-8.533333l115.2 64c8.533333 4.266667 12.8 17.066667 8.533333 29.866667-4.266667 4.266667-12.8 8.533333-17.066667 8.533333zM968.533333 396.8c-4.266667 0-8.533333 0-8.533333-4.266667l-115.2-59.733333c-12.8-8.533333-17.066667-21.333333-8.533333-29.866667s17.066667-17.066667 25.6-8.533333l115.2 64c8.533333 4.266667 12.8 21.333333 8.533333 29.866667-4.266667 8.533333-8.533333 8.533333-17.066667 8.533333z" fill="#666666" p-id="7064"></path><path d="M635.733333 298.666667H200.533333c-8.533333 0-21.333333-12.8-21.333333-25.6s8.533333-21.333333 21.333333-21.333334h430.933334c12.8 0 21.333333 8.533333 21.333333 21.333334 4.266667 12.8-8.533333 25.6-17.066667 25.6z" fill="#666666" p-id="7065"></path><path d="M460.8 516.266667H200.533333c-12.8 0-21.333333-8.533333-21.333333-21.333334s12.8-25.6 21.333333-25.6h260.266667c12.8 0 21.333333 8.533333 21.333333 21.333334s-8.533333 25.6-21.333333 25.6z" fill="#666666" p-id="7066"></path><path d="M460.8 733.866667H200.533333c-12.8 0-21.333333-8.533333-21.333333-21.333334s8.533333-21.333333 21.333333-21.333333h260.266667c12.8 0 21.333333 8.533333 21.333333 21.333333s-8.533333 21.333333-21.333333 21.333334z" fill="#666666" p-id="7067"></path></svg>