<svg t="1606737287809" class="icon" viewBox="0 0 1411 1024" version="1.1" xmlns="http://www.w3.org/2000/svg" p-id="5484" width="24" height="24"><path d="M707.050027 488.115975a420.064877 420.064877 0 0 0-410.364289 514.425147H1117.120358a420.064877 420.064877 0 0 0-410.364289-514.425147zM528.177054 279.259366a282.198938 282.198938 0 0 0 255.742788-164.028133 233.402038 233.402038 0 0 0 154.033586 109.352088A232.961102 232.961102 0 0 0 806.113612 44.093584a237.223482 237.223482 0 0 0-52.765322-17.784412 240.016076 240.016076 0 0 0-46.298263-4.26238 233.108081 233.108081 0 0 0-233.108081 233.108081c0 6.173102 0 12.199225 1.02885 18.225348a287.637147 287.637147 0 0 0 53.206258 5.879145z" fill="#8a8a8a" p-id="5485"></path><path d="M823.163131 481.795895a255.301852 255.301852 0 0 0 138.600833-226.641022 273.968135 273.968135 0 0 0-2.351658-33.217167v-3.380508a258.68236 258.68236 0 0 0-4.703316-24.104492c0-2.498636-1.322808-5.144251-1.910722-7.642888l-3.380508-11.317354c-1.910722-5.585187-3.968423-11.170375-6.173101-16.608583-1.02885-2.498636-2.057701-4.997273-3.23353-7.348931-2.204679-4.997273-4.409358-9.847567-6.907995-14.697861-0.881872-1.469786-1.469786-2.939572-2.351658-4.409358a210.767332 210.767332 0 0 0-11.170374-18.372327l-2.204679-3.233529a254.126023 254.126023 0 0 0-28.513851-34.539975l-2.939573-2.939572c-5.144251-4.997273-10.435482-9.994546-16.020669-14.697861-1.02885-0.881872-2.057701-1.469786-2.939572-2.351658-4.26238-3.380508-8.818717-6.761016-13.228075-9.847567l-7.789867-5.29123-9.847567-6.026123c-5.29123-3.086551-10.729439-5.879145-16.167647-8.671739l-4.26238-2.204679-2.498636-1.02885-11.170375-4.997273-16.167647-5.732166L779.069547 10.288503c-6.761016-1.763743-12.934118-3.380508-19.107219-4.703316h-1.910722l-9.847568-1.469786c-4.997273 0-9.994546-1.763743-14.697861-2.204679A248.393857 248.393857 0 0 0 707.050027 0a255.44883 255.44883 0 0 0-255.154873 255.154873c0 6.614038 0 13.228075 1.02885 19.842113a255.595809 255.595809 0 0 0 137.571982 206.65193A440.93584 440.93584 0 0 0 275.22686 1006.803502a22.046792 22.046792 0 0 0 21.458878 17.196498H1117.120358a22.193771 22.193771 0 0 0 21.605856-17.196498A442.258648 442.258648 0 0 0 823.163131 481.795895zM728.214947 45.122434c4.556337 0 8.965695 1.322808 13.522032 2.057701s4.997273 0 7.348931 1.175829a207.092866 207.092866 0 0 1 23.516578 6.32008h1.175829a221.349792 221.349792 0 0 1 22.340749 8.965696h1.469787c6.026123 2.792594 11.758289 6.026123 17.490455 9.406631l2.939572 1.763743c4.850294 2.939572 9.55361 6.173102 14.697861 9.55361l4.409359 3.527487a138.306875 138.306875 0 0 1 11.170374 9.259652l5.585188 5.144252q4.556337 4.409358 8.818716 9.259653c2.057701 2.057701 3.968423 4.115401 5.879145 6.32008s5.29123 6.761016 7.789866 10.141524l4.997273 6.467059c3.086551 4.703316 6.026123 9.406631 8.818717 14.697862 0 1.175829 1.322808 2.204679 2.057701 3.380508a213.265968 213.265968 0 0 1 16.90254 39.978183 212.384096 212.384096 0 0 1-105.824601-89.362997 22.340749 22.340749 0 0 0-19.989092-10.729439A21.899813 21.899813 0 0 0 764.371686 105.824602a261.327975 261.327975 0 0 1-235.165782 150.653078 266.178269 266.178269 0 0 1-32.041337-2.0577v-11.317353-9.847567c0-3.233529 1.175829-7.789867 1.763743-11.611311s0.881872-6.173102 1.469786-9.259653 1.910722-7.642888 2.939572-11.464331a83.630831 83.630831 0 0 1 2.351658-8.671739c1.175829-3.821444 2.645615-7.495909 4.115401-11.317353s1.763743-5.438209 2.939573-8.083824 3.380508-7.054973 5.144251-10.729438 2.351658-5.144251 3.821444-7.642888 3.968423-6.761016 6.026123-10.141525 2.939572-4.850294 4.556337-7.201952 4.703316-6.467059 7.054974-9.55361 3.233529-4.556337 4.997273-6.761016 5.438209-5.879145 8.083823-8.818717L558.601627 105.824602l8.965696-8.083824c2.057701-1.910722 3.968423-3.821444 6.026123-5.438209s6.467059-4.850294 9.700588-7.201952 4.26238-3.380508 6.614038-4.997273 6.907995-4.26238 10.288503-6.32008l7.054973-4.26238c3.674465-1.910722 7.495909-3.674465 11.464332-5.438209l6.907995-3.380508a120.81642 120.81642 0 0 1 12.199225-4.409358c2.351658-0.881872 4.703316-1.910722 7.201952-2.645615s8.52476-2.351658 12.787139-3.380508l7.348931-1.910722c4.703316-0.881872 9.406631-1.469786 13.962968-2.057701l7.054974-1.175829c7.054973 0 14.697861-1.02885 21.458877-1.02885s13.669011 0 20.577006 1.02885zM500.692053 299.248457c9.259653 0.881872 18.519305 1.322808 27.485001 1.322808a306.009473 306.009473 0 0 0 258.241424-143.598106 254.713937 254.713937 0 0 0 130.957945 85.247596c0 4.26238 0.734893 8.52476 0.734893 12.934118a211.061289 211.061289 0 0 1-417.419263 44.093584zM1099.482925 979.906416H314.617129a404.191187 404.191187 0 0 1-5.879145-70.696713 398.899957 398.899957 0 1 1 797.799914 0 404.191187 404.191187 0 0 1-7.054973 70.696713z" fill="#8a8a8a" p-id="5486"></path><path d="M140.447472 847.625664H48.291881A281.317066 281.317066 0 0 1 44.17648 799.710636a295.427013 295.427013 0 0 1 295.133056-294.986077 22.046792 22.046792 0 0 0 0-44.093584 153.445672 153.445672 0 0 1-20.283049-305.568538 21.899813 21.899813 0 0 0 18.813263-24.692407 22.193771 22.193771 0 0 0-24.839386-18.960241 197.245299 197.245299 0 0 0-75.400029 364.800919A338.050811 338.050811 0 0 0 8.607656 874.52275 22.046792 22.046792 0 0 0 29.478619 891.719248h110.968853a22.046792 22.046792 0 0 0 0-44.093584zM1174.295039 476.210708a197.245299 197.245299 0 0 0-73.489307-364.65394 22.046792 22.046792 0 1 0-6.026123 44.093584A153.445672 153.445672 0 0 1 1073.026774 460.630975a22.046792 22.046792 0 1 0 0 44.093584 295.427013 295.427013 0 0 1 294.69212 294.986077 281.317066 281.317066 0 0 1-4.115401 47.915028h-91.714655a22.046792 22.046792 0 0 0 0 44.093584H1381.681862a22.046792 22.046792 0 0 0 21.458878-17.196498 338.050811 338.050811 0 0 0-228.845701-398.312042z" fill="#8a8a8a" p-id="5487"></path></svg>