<svg t="1607260775100" class="icon" viewBox="0 0 1137 1024" version="1.1" xmlns="http://www.w3.org/2000/svg" p-id="3674" width="24" height="24"><path d="M0 0h341.333333v1024H0z" fill="#9370DB" p-id="3675" data-spm-anchor-id="a313x.7781069.0.i9" class=""></path><path d="M56.888889 56.888889h227.555555v512H56.888889z" fill="#ffffff" p-id="3676" data-spm-anchor-id="a313x.7781069.0.i10" class="selected"></path><path d="M398.222222 0h341.333334v1024H398.222222z" fill="#9370DB" p-id="3677" data-spm-anchor-id="a313x.7781069.0.i7" class=""></path><path d="M455.111111 56.888889h227.555556v512H455.111111z" fill="#ffffff" p-id="3678" data-spm-anchor-id="a313x.7781069.0.i6" class="selected"></path><path d="M796.444444 0h341.333334v1024h-341.333334z" fill="#9370DB" p-id="3679" data-spm-anchor-id="a313x.7781069.0.i8" class=""></path><path d="M853.333333 56.888889h227.555556v512h-227.555556z" fill="#ffffff" p-id="3680" data-spm-anchor-id="a313x.7781069.0.i11" class="selected"></path><path d="M170.666667 796.444444m-56.888889 0a56.888889 56.888889 0 1 0 113.777778 0 56.888889 56.888889 0 1 0-113.777778 0Z" fill="#ffffff" p-id="3681" data-spm-anchor-id="a313x.7781069.0.i14" class="selected"></path><path d="M568.888889 796.444444m-113.777778 0a113.777778 113.777778 0 1 0 227.555556 0 113.777778 113.777778 0 1 0-227.555556 0Z" fill="#ffffff" p-id="3682" data-spm-anchor-id="a313x.7781069.0.i13" class="selected"></path><path d="M967.111111 796.444444m-56.888889 0a56.888889 56.888889 0 1 0 113.777778 0 56.888889 56.888889 0 1 0-113.777778 0Z" fill="#ffffff" p-id="3683" data-spm-anchor-id="a313x.7781069.0.i12" class="selected"></path></svg>