<svg t="1607238922659" class="icon" viewBox="0 0 1100 1024" version="1.1" xmlns="http://www.w3.org/2000/svg" p-id="9505" width="24" height="24"><path d="M1010.4 484.8L936 376.8c-3.2-3.2-6.4-6.4-13.6-6.4s-10.4 0-16.8 3.2l-36.8 27.2 97.6 141.6 36.8-27.2c3.2-3.2 6.4-6.4 6.4-13.6 4-6.4 0.8-9.6 0.8-16.8z m-384 286.4h10.4c3.2 0 3.2-3.2 3.2-3.2l272.8-192-97.6-138.4-272.8 192c-3.2 3.2-6.4 6.4-6.4 13.6s0 10.4 3.2 16.8L612.8 768c4 0 7.2 3.2 13.6 3.2z m-188.8 37.6L552 785.6l-53.6-77.6-60.8 100.8z" fill="#9370DB" p-id="9506"></path><path d="M636.8 828.8l-242.4 57.6h-6.4c-23.2-3.2-36.8-27.2-33.6-50.4v-6.4l131.2-219.2c0-3.2 3.2-3.2 3.2-3.2 6.4-10.4 13.6-16.8 23.2-23.2l364-252.8c16.8-13.6 40.8-16.8 60.8-13.6 6.4 0 10.4 3.2 16.8 3.2V84C953.6 40 916.8 3.2 872.8 3.2H172C128 3.2 91.2 40 91.2 84v117.6H88C44 201.6 7.2 235.2 7.2 279.2s33.6 77.6 77.6 77.6h6.4V424H88c-44 0-77.6 33.6-77.6 77.6s33.6 77.6 77.6 77.6h6.4v70.4H88c-44 0-77.6 33.6-77.6 77.6s33.6 77.6 77.6 77.6h6.4v121.6c0 50.4 36.8 87.2 80.8 87.2h697.6c44 0 80.8-40.8 80.8-87.2V613.6L674.4 816c-14.4 5.6-24 9.6-37.6 12.8zM333.6 192h454.4c16.8 0 30.4 13.6 30.4 30.4s-13.6 30.4-30.4 30.4H333.6c-16.8 0-30.4-13.6-30.4-30.4-3.2-16.8 10.4-30.4 30.4-30.4z m0 181.6h205.6c16.8 0 30.4 13.6 30.4 30.4s-13.6 30.4-30.4 30.4H333.6c-16.8 0-30.4-13.6-30.4-30.4-3.2-16.8 10.4-30.4 30.4-30.4zM151.2 754.4h-67.2c-10.4 0-23.2-6.4-23.2-23.2s13.6-23.2 23.2-23.2h67.2c10.4 0 23.2 6.4 23.2 23.2s-12.8 23.2-23.2 23.2z m0-225.6h-67.2c-10.4 0-23.2-6.4-23.2-23.2 0-16.8 13.6-23.2 23.2-23.2h67.2c10.4 0 23.2 6.4 23.2 23.2 0.8 12.8-12.8 23.2-23.2 23.2z m0-225.6h-67.2c-6.4 0-20-6.4-20-23.2s13.6-24 23.2-24h67.2c10.4 0 20 6.4 23.2 23.2-2.4 13.6-16 24-26.4 24z m148.8 283.2c0-16.8 13.6-30.4 30.4-30.4h74.4c16.8 0 30.4 13.6 30.4 30.4s-13.6 30.4-30.4 30.4h-70.4c-20.8 0-34.4-13.6-34.4-30.4z" fill="#9370DB" p-id="9507"></path></svg>