<svg t="1607261121856" class="icon" viewBox="0 0 1024 1024" version="1.1" xmlns="http://www.w3.org/2000/svg" p-id="8473" width="24" height="24"><path d="M660.690411 490.958904c-49.09589 0-93.983562-15.430137-133.260274-46.290411l-22.443836-18.235616 23.846576-15.430137c57.512329-37.873973 92.580822-100.99726 92.580822-169.731507 0-47.693151-16.832877-93.983562-47.693151-130.454795l-18.235616-22.443835 28.054794-11.221918c25.249315-9.819178 50.49863-14.027397 77.150685-14.027397 117.830137 0 214.619178 95.386301 214.619178 214.619178S778.520548 490.958904 660.690411 490.958904z m-82.761644-63.123288c25.249315 14.027397 53.30411 21.041096 82.761644 21.041096 95.386301 0 172.536986-77.150685 172.536986-172.536986S756.076712 105.205479 660.690411 105.205479c-12.624658 0-23.846575 1.40274-35.068493 4.20822 25.249315 39.276712 39.276712 85.567123 39.276712 131.857534-1.40274 72.942466-32.263014 140.273973-86.969863 186.564383zM1014.180822 955.265753H778.520548V784.131507c0-88.372603-44.887671-168.328767-119.232877-214.619178L596.164384 530.235616h168.328767c138.871233 0 252.493151 113.621918 252.49315 252.493151v131.857534c0 7.013699 0 14.027397-1.402739 21.041096l-1.40274 19.638356z m-193.578082-42.082191h154.30137v-130.454795c0-116.427397-93.983562-210.410959-210.410959-210.410959h-33.665754c57.512329 54.706849 89.775342 130.454795 89.775343 211.813699v129.052055z" fill="#9370DB" p-id="8474"></path><path d="M403.989041 497.972603c-134.663014 0-245.479452-110.816438-245.479452-245.479452S267.923288 7.013699 403.989041 7.013699C538.652055 7.013699 649.468493 117.830137 649.468493 252.493151s-110.816438 245.479452-245.479452 245.479452z m0-448.876713c-112.219178 0-203.39726 91.178082-203.39726 203.397261s91.178082 203.39726 203.39726 203.39726S607.386301 364.712329 607.386301 252.493151 516.208219 49.09589 403.989041 49.09589zM820.60274 1024H7.013699V784.131507c0-138.871233 113.621918-252.493151 252.49315-252.493151h308.60274c138.871233 0 252.493151 113.621918 252.493151 252.493151V1024zM49.09589 981.917808h729.424658V784.131507c0-116.427397-93.983562-210.410959-210.410959-210.410959H259.506849c-116.427397 0-210.410959 93.983562-210.410959 210.410959V981.917808z" fill="#9370DB" p-id="8475"></path><path d="M419.419178 1022.59726L315.616438 628.427397l103.80274-96.789041 103.80274 96.789041-103.80274 394.169863z m-57.512329-380.142465l57.512329 216.021917 57.512329-216.021917-57.512329-53.30411-57.512329 53.30411z" fill="#9370DB" p-id="8476"></path></svg>