<svg t="1607239059424" class="icon" viewBox="0 0 1024 1024" version="1.1" xmlns="http://www.w3.org/2000/svg" p-id="10656" width="24" height="24"><path d="M480.103 486.324c0.14 0 0.276-0.006 0.416-0.006 35.49 1.55 71.711 9.725 108.507 24.56 69.947 28.204 115.916 71.034 116.344 71.44l0.023-0.023c4.242 4.016 9.95 6.502 16.237 6.502 13.037 0 23.647-10.609 23.647-23.646 0-6.75-2.856-12.835-7.409-17.145l0.023-0.022c-2.08-1.972-51.829-48.594-129.568-80.309a422.334 422.334 0 0 0-23.978-8.93c63.783-36.368 106.884-105.014 106.884-183.542 0-116.418-94.709-211.127-211.126-211.127s-211.127 94.71-211.127 211.127c0 75.508 39.856 141.872 99.622 179.198-21.675 6.901-42.954 16.086-63.744 27.546-51.856 28.581-95.199 65.649-128.829 110.175-26.909 35.635-47.62 76.01-61.547 120.012-22.18 70.066-20 126.677-19.482 135.669-0.08 6.36 2.282 10.705 4.518 13.37 2.948 3.52 8.71 7.712 19.398 7.712 12.48 0 22.694-10.09 23.264-22.965l0.016-0.467 0.052-0.007c0-0.028-0.012-0.202-0.034-0.501 0.051-1.74 0.022-3.674-0.191-5.673-0.277-15.725 0.76-59.818 17.555-112.868 28.086-88.726 84.647-157.04 168.116-203.041 45.563-25.111 92.975-37.54 141.81-37.309 3.509 0.18 7.048 0.27 10.603 0.27zM316.269 275.203c0-90.338 73.497-163.835 163.835-163.835s163.834 73.497 163.834 163.835-73.498 163.83-163.835 163.83-163.834-73.498-163.834-163.83z" fill="#9370DB" p-id="10657"></path><path d="M904.559 615.807H466.638c-11.516 0-20.88 9.365-20.88 20.88v300.556c0 11.516 9.365 20.88 20.88 20.88h437.917c11.516 0 20.88-9.365 20.88-20.88V636.688c0.004-11.511-9.365-20.88-20.876-20.88z m-18.535 302.9H485.168v-263.49h400.856v263.49z" fill="#9370DB" p-id="10658"></path><path d="M616.843 787.76l79.671 81.368 148.662-120.79-24.143-29.714-121.578 98.783-79.091-80.776-102.992 79.672 23.427 30.282z" fill="#9370DB" p-id="10659"></path></svg>