<svg t="1607261060735" class="icon" viewBox="0 0 1024 1024" version="1.1" xmlns="http://www.w3.org/2000/svg" p-id="7456" width="24" height="24"><path d="M885.34384 51.904h-75.68c-20.128 0-36.48 16.416-36.48 36.64s16.352 36.64 36.48 36.64h75.68c18.592 0 33.76 15.2 33.76 33.888v127.904H104.92784v-127.904c0-18.688 15.136-33.888 33.728-33.888h75.648c20.128 0 36.48-16.384 36.48-36.64 0-20.224-16.32-36.64-36.48-36.64h-75.648a107.008 107.008 0 0 0-106.656 107.136v757.856a107.008 107.008 0 0 0 106.656 107.136h746.688a107.008 107.008 0 0 0 106.656-107.136V159.04a107.008 107.008 0 0 0-106.656-107.136z m0 898.816H138.65584a33.856 33.856 0 0 1-33.728-33.856V360.192h814.144v556.672a33.792 33.792 0 0 1-33.728 33.856z" fill="#9370DB" p-id="7457"></path><path d="M433.34384 125.152h157.824c20.128 0 36.448-16.384 36.448-36.64 0-20.224-16.32-36.64-36.448-36.64h-157.824c-20.128 0-36.448 16.384-36.448 36.64s16.32 36.64 36.448 36.64z m-109.376 51.904c20.128 0 36.48-19.808 36.48-44.256v-88.544c0-24.448-16.32-44.256-36.48-44.256-20.128 0-36.448 19.808-36.448 44.256v88.544c0 24.448 16.32 44.256 36.448 44.256z m376.576 0c20.16 0 36.48-19.808 36.48-44.256v-88.544c0-24.448-16.32-44.256-36.48-44.256-20.128 0-36.48 19.808-36.48 44.256v88.544c0 24.448 16.352 44.256 36.48 44.256z m66.752 324.256H256.76784c-20.128 0-36.48 16.416-36.48 36.64s16.32 36.64 36.48 36.64h510.528c20.128 0 36.448-16.416 36.448-36.64a36.576 36.576 0 0 0-36.448-36.64z m0 222.08H256.76784c-20.128 0-36.48 16.416-36.48 36.64 0 20.256 16.32 36.64 36.48 36.64h510.528c20.128 0 36.448-16.384 36.448-36.64a36.544 36.544 0 0 0-36.448-36.64z" fill="#9370DB" p-id="7458"></path></svg>